<svg width="95" height="141" viewBox="0 0 95 141" fill="none" xmlns="http://www.w3.org/2000/svg">
<path d="M95 141.389L0.46875 132.258V100.192L95 91.2227V109.108L79.7461 110.451V121.838L95 123.02V141.389ZM64.6533 120.495V111.901L16.582 116.037V116.896L64.6533 120.495ZM95 79.6813H0.46875V61.4195L95 61.4195V79.6813ZM95 47.3L0.46875 47.3V21.3039C0.46875 14.5005 2.36654 9.38008 6.16211 5.94258C9.92188 2.50508 15.4362 0.786331 22.7051 0.786331H66.9629C75.9147 0.786331 82.8255 2.36185 87.6953 5.51289C92.5651 8.62813 95 14.1066 95 21.9484V47.3ZM78.2959 28.2863L78.2959 25.01C78.2959 21.5367 76.613 19.8 73.2471 19.8H24.4775C21.3265 19.8 19.3034 20.2297 18.4082 21.0891C17.4772 21.9126 17.0117 23.6135 17.0117 26.1916V28.2863H78.2959Z" fill="white" fill-opacity="0.7"/>
</svg>
