<svg width="95" height="220" viewBox="0 0 95 220" fill="none" xmlns="http://www.w3.org/2000/svg">
<path d="M95 219.811H0.46875V201.012H34.2529V192.096H0.46875V173.297H95V192.096H52.1387V201.012H95V219.811ZM95 158.318H0.46875V120.505H18.7305V139.089H37.1533V121.257H54.9316V139.089H76.5771V119.27L95 119.27V158.318ZM95 108.964L0.46875 99.8332V67.7678L95 58.798V76.6838L79.7461 78.0266V89.4133L95 90.5949V108.964ZM64.6533 88.0705V79.4768L16.582 83.6125V84.4719L64.6533 88.0705ZM95 46.3973H0.46875V17.3934C0.46875 12.5594 1.57878 8.90703 3.79883 6.43633C5.98307 3.96562 9.0625 2.31849 13.0371 1.49492C16.9759 0.635544 21.613 0.205856 26.9482 0.205856C32.1045 0.205856 36.2223 0.868291 39.3018 2.19316C42.3812 3.48222 44.5117 5.93502 45.6934 9.55156C46.3021 6.57955 47.7881 4.50273 50.1514 3.32109C52.4788 2.10364 55.5046 1.49492 59.2285 1.49492H95V20.1326H57.9932C55.236 20.1326 53.5352 20.7055 52.8906 21.8514C52.2103 22.9614 51.8701 24.7697 51.8701 27.2762H95V46.3973ZM35.4883 27.1687V22.6033C35.4883 19.9894 32.6416 18.6824 26.9482 18.6824C23.2601 18.6824 20.8431 18.9689 19.6973 19.5418C18.5514 20.1147 17.9785 21.1889 17.9785 22.7645V27.1687H35.4883Z" fill="white" fill-opacity="0.7"/>
</svg>
