<svg width="97" height="307" viewBox="0 0 97 307" fill="none" xmlns="http://www.w3.org/2000/svg">
<path d="M96 306.811H1.46875V287.904H79.8867V268.461H96V306.811ZM96 259.068L1.46875 249.937V217.872L96 208.902V226.788L80.7461 228.13V239.517L96 240.699V259.068ZM65.6533 238.174V229.581L17.582 233.716V234.576L65.6533 238.174ZM96 189.787H19.623V201.013H1.46875V159.655H19.623V170.881H96V189.787ZM96 147.792H1.46875L1.46875 109.979H19.7305V128.563H38.1533V110.731H55.9316V128.563H77.5771V108.744H96V147.792ZM96.8594 73.4086C96.8594 82.0382 94.7109 88.2686 90.4141 92.1C86.1172 95.8956 79.278 97.7934 69.8965 97.7934H60.6582V79.102H72.4746C74.6589 79.102 76.3776 78.7797 77.6309 78.1352C78.8483 77.4548 79.457 76.2911 79.457 74.644C79.457 72.9252 78.9557 71.7436 77.9531 71.099C76.9505 70.4187 75.3034 70.0785 73.0117 70.0785C70.1113 70.0785 67.6943 70.365 65.7607 70.9379C63.7913 71.5108 61.9294 72.5134 60.1748 73.9457C58.3844 75.3422 56.3076 77.2937 53.9443 79.8002L45.8877 88.2865C39.9079 94.6244 33.0687 97.7934 25.3701 97.7934C17.3135 97.7934 11.1725 95.9314 6.94727 92.2074C2.72201 88.4477 0.609375 83.0229 0.609375 75.933C0.609375 67.2676 2.91895 61.1267 7.53809 57.5102C12.1572 53.8578 19.1755 52.0316 28.5928 52.0316V71.2602H22.0938C20.8047 71.2602 19.8021 71.6361 19.0859 72.3881C18.3698 73.1042 18.0117 74.0889 18.0117 75.3422C18.0117 76.8461 18.4414 77.9561 19.3008 78.6723C20.1243 79.3526 21.1986 79.6928 22.5234 79.6928C23.8483 79.6928 25.2806 79.3347 26.8203 78.6186C28.36 77.9024 30.1325 76.488 32.1377 74.3754L42.6113 63.4721C44.6882 61.2878 46.8903 59.2826 49.2178 57.4565C51.5094 55.6303 54.195 54.1622 57.2744 53.0522C60.318 51.9421 64.042 51.3871 68.4463 51.3871C77.3265 51.3871 84.291 53.0343 89.3398 56.3285C94.3529 59.587 96.8594 65.2803 96.8594 73.4086ZM96 30.3389H19.623V41.5645H1.46875L1.46875 0.207031H19.623V11.4326H96V30.3389Z" fill="white" fill-opacity="0.7"/>
</svg>
