<svg width="97" height="447" viewBox="0 0 97 447" fill="none" xmlns="http://www.w3.org/2000/svg">
<path d="M96 446.811H1.46875V421.835C1.46875 416.607 2.63249 412.471 4.95996 409.428C7.28743 406.348 10.5996 404.146 14.8965 402.821C19.1934 401.496 24.3138 400.834 30.2578 400.834C35.987 400.834 40.9821 401.389 45.2432 402.499C49.4684 403.609 52.7448 405.596 55.0723 408.461C57.3997 411.29 58.5635 415.318 58.5635 420.546V428.227H96V446.811ZM41.5908 428.227V427.152C41.5908 423.643 40.6061 421.495 38.6367 420.707C36.6673 419.919 33.7669 419.525 29.9355 419.525C26.3548 419.525 23.5977 419.919 21.6641 420.707C19.6947 421.459 18.71 423.267 18.71 426.132V428.227H41.5908ZM96 388.218H1.46875V350.406H19.7305V368.99H38.1533V351.158H55.9316V368.99H77.5771V349.171H96V388.218ZM96 336.286H1.46875V307.282C1.46875 302.448 2.57878 298.796 4.79883 296.325C6.98307 293.855 10.0625 292.208 14.0371 291.384C17.9759 290.525 22.613 290.095 27.9482 290.095C33.1045 290.095 37.2223 290.757 40.3018 292.082C43.3812 293.371 45.5117 295.824 46.6934 299.441C47.3021 296.469 48.7881 294.392 51.1514 293.21C53.4788 291.993 56.5046 291.384 60.2285 291.384H96V310.022H58.9932C56.236 310.022 54.5352 310.595 53.8906 311.74C53.2103 312.85 52.8701 314.659 52.8701 317.165H96V336.286ZM36.4883 317.058V312.492C36.4883 309.878 33.6416 308.571 27.9482 308.571C24.2601 308.571 21.8431 308.858 20.6973 309.431C19.5514 310.004 18.9785 311.078 18.9785 312.654V317.058H36.4883ZM96.8594 254.813C96.8594 263.443 94.7109 269.673 90.4141 273.505C86.1172 277.3 79.278 279.198 69.8965 279.198H60.6582V260.507H72.4746C74.6589 260.507 76.3776 260.184 77.6309 259.54C78.8483 258.86 79.457 257.696 79.457 256.049C79.457 254.33 78.9557 253.148 77.9531 252.504C76.9505 251.823 75.3034 251.483 73.0117 251.483C70.1113 251.483 67.6943 251.77 65.7607 252.343C63.7913 252.915 61.9294 253.918 60.1748 255.35C58.3844 256.747 56.3076 258.698 53.9443 261.205L45.8877 269.691C39.9079 276.029 33.0687 279.198 25.3701 279.198C17.3135 279.198 11.1725 277.336 6.94727 273.612C2.72201 269.852 0.609375 264.428 0.609375 257.338C0.609375 248.672 2.91895 242.531 7.53809 238.915C12.1572 235.262 19.1755 233.436 28.5928 233.436V252.665H22.0938C20.8047 252.665 19.8021 253.041 19.0859 253.793C18.3698 254.509 18.0117 255.494 18.0117 256.747C18.0117 258.251 18.4414 259.361 19.3008 260.077C20.1243 260.757 21.1986 261.097 22.5234 261.097C23.8483 261.097 25.2806 260.739 26.8203 260.023C28.36 259.307 30.1325 257.893 32.1377 255.78L42.6113 244.877C44.6882 242.693 46.8903 240.687 49.2178 238.861C51.5094 237.035 54.195 235.567 57.2744 234.457C60.318 233.347 64.042 232.792 68.4463 232.792C77.3265 232.792 84.291 234.439 89.3398 237.733C94.3529 240.992 96.8594 246.685 96.8594 254.813ZM96.8594 197.295C96.8594 204.851 94.5856 210.634 90.0381 214.644C85.4548 218.619 78.8483 220.606 70.2188 220.606H25.3164C17.224 220.606 11.083 218.636 6.89355 214.698C2.7041 210.723 0.609375 204.922 0.609375 197.295C0.609375 189.668 2.7041 183.885 6.89355 179.947C11.083 175.972 17.224 173.985 25.3164 173.985H70.2188C78.8483 173.985 85.4548 175.99 90.0381 180C94.5856 183.975 96.8594 189.74 96.8594 197.295ZM79.457 197.134C79.457 194.27 76.682 192.837 71.1318 192.837H24.9941C20.3392 192.837 18.0117 194.234 18.0117 197.027C18.0117 200.178 20.3929 201.753 25.1553 201.753H71.2393C74.1755 201.753 76.2881 201.395 77.5771 200.679C78.8304 199.963 79.457 198.781 79.457 197.134ZM96 159.758H1.46875V140.314L46.7471 131.613H1.46875V113.352H96V131.828L48.7344 141.281H96V159.758ZM96 100.951L1.46875 91.8199V59.7545L96 50.7848V68.6705L80.7461 70.0133V81.4L96 82.5816V100.951ZM65.6533 80.0572V71.4635L17.582 75.5992V76.4586L65.6533 80.0572ZM96 38.384H1.46875V19.4777H79.8867V0.0343628H96V38.384Z" fill="white" fill-opacity="0.7"/>
</svg>
