<svg width="97" height="151" viewBox="0 0 97 151" fill="none" xmlns="http://www.w3.org/2000/svg">
<path d="M96.8594 126.359C96.8594 134.989 94.7109 141.219 90.4141 145.051C86.1172 148.846 79.278 150.744 69.8965 150.744H60.6582V132.053H72.4746C74.6589 132.053 76.3776 131.73 77.6309 131.086C78.8483 130.406 79.457 129.242 79.457 127.595C79.457 125.876 78.9557 124.694 77.9531 124.05C76.9505 123.369 75.3034 123.029 73.0117 123.029C70.1113 123.029 67.6943 123.316 65.7607 123.889C63.7913 124.462 61.9294 125.464 60.1748 126.896C58.3844 128.293 56.3076 130.244 53.9443 132.751L45.8877 141.237C39.9079 147.575 33.0687 150.744 25.3701 150.744C17.3135 150.744 11.1725 148.882 6.94727 145.158C2.72201 141.398 0.609375 135.974 0.609375 128.884C0.609375 120.218 2.91895 114.077 7.53809 110.461C12.1572 106.809 19.1755 104.982 28.5928 104.982V124.211H22.0938C20.8047 124.211 19.8021 124.587 19.0859 125.339C18.3698 126.055 18.0117 127.04 18.0117 128.293C18.0117 129.797 18.4414 130.907 19.3008 131.623C20.1243 132.303 21.1986 132.644 22.5234 132.644C23.8483 132.644 25.2806 132.285 26.8203 131.569C28.36 130.853 30.1325 129.439 32.1377 127.326L42.6113 116.423C44.6882 114.239 46.8903 112.233 49.2178 110.407C51.5094 108.581 54.195 107.113 57.2744 106.003C60.318 104.893 64.042 104.338 68.4463 104.338C77.3265 104.338 84.291 105.985 89.3398 109.279C94.3529 112.538 96.8594 118.231 96.8594 126.359ZM96 91.4H1.46875V53.5875H19.7305V72.1715H38.1533V54.3395H55.9316V72.1715H77.5771V52.3521L96 52.3521V91.4ZM96 39.468L1.46875 39.468V1.65547H19.7305V20.2395H38.1533V2.40742H55.9316V20.2395H77.5771V0.42012H96V39.468Z" fill="white" fill-opacity="0.7"/>
</svg>
