<svg width="97" height="228" viewBox="0 0 97 228" fill="none" xmlns="http://www.w3.org/2000/svg">
<path d="M96.8594 203.359C96.8594 211.989 94.7109 218.219 90.4141 222.051C86.1172 225.846 79.278 227.744 69.8965 227.744H60.6582V209.053H72.4746C74.6589 209.053 76.3776 208.73 77.6309 208.086C78.8483 207.406 79.457 206.242 79.457 204.595C79.457 202.876 78.9557 201.694 77.9531 201.05C76.9505 200.369 75.3034 200.029 73.0117 200.029C70.1113 200.029 67.6943 200.316 65.7607 200.889C63.7913 201.462 61.9294 202.464 60.1748 203.896C58.3844 205.293 56.3076 207.244 53.9443 209.751L45.8877 218.237C39.9079 224.575 33.0687 227.744 25.3701 227.744C17.3135 227.744 11.1725 225.882 6.94727 222.158C2.72201 218.398 0.609375 212.974 0.609375 205.884C0.609375 197.218 2.91895 191.077 7.53809 187.461C12.1572 183.809 19.1755 181.982 28.5928 181.982V201.211H22.0938C20.8047 201.211 19.8021 201.587 19.0859 202.339C18.3698 203.055 18.0117 204.04 18.0117 205.293C18.0117 206.797 18.4414 207.907 19.3008 208.623C20.1243 209.303 21.1986 209.644 22.5234 209.644C23.8483 209.644 25.2806 209.285 26.8203 208.569C28.36 207.853 30.1325 206.439 32.1377 204.326L42.6113 193.423C44.6882 191.239 46.8903 189.233 49.2178 187.407C51.5094 185.581 54.195 184.113 57.2744 183.003C60.318 181.893 64.042 181.338 68.4463 181.338C77.3265 181.338 84.291 182.985 89.3398 186.279C94.3529 189.538 96.8594 195.231 96.8594 203.359ZM96 168.4H1.46875V149.601H35.2529V140.685H1.46875V121.886L96 121.886V140.685H53.1387V149.601H96V168.4ZM96.8594 84.3488C96.8594 91.9042 94.5856 97.687 90.0381 101.697C85.4548 105.672 78.8483 107.659 70.2188 107.659H25.3164C17.224 107.659 11.083 105.69 6.89355 101.751C2.7041 97.7766 0.609375 91.9758 0.609375 84.3488C0.609375 76.7219 2.7041 70.939 6.89355 67.0002C11.083 63.0256 17.224 61.0383 25.3164 61.0383H70.2188C78.8483 61.0383 85.4548 63.0435 90.0381 67.0539C94.5856 71.0285 96.8594 76.7935 96.8594 84.3488ZM79.457 84.1877C79.457 81.3231 76.682 79.8908 71.1318 79.8908H24.9941C20.3392 79.8908 18.0117 81.2873 18.0117 84.0803C18.0117 87.2313 20.3929 88.8068 25.1553 88.8068H71.2393C74.1755 88.8068 76.2881 88.4488 77.5771 87.7326C78.8304 87.0165 79.457 85.8348 79.457 84.1877ZM96 46.8113H1.46875V21.8357C1.46875 16.6079 2.63249 12.4721 4.95996 9.42851C7.28743 6.34909 10.5996 4.14694 14.8965 2.82207C19.1934 1.4972 24.3138 0.834763 30.2578 0.834763C35.987 0.834763 40.9821 1.38978 45.2432 2.4998C49.4684 3.60983 52.7448 5.59713 55.0723 8.46172C57.3997 11.2905 58.5635 15.3188 58.5635 20.5467V28.2273H96V46.8113ZM41.5908 28.2273V27.1531C41.5908 23.644 40.6061 21.4956 38.6367 20.7078C36.6673 19.92 33.7669 19.5262 29.9355 19.5262C26.3548 19.5262 23.5977 19.92 21.6641 20.7078C19.6947 21.4598 18.71 23.268 18.71 26.1326V28.2273H41.5908Z" fill="white" fill-opacity="0.7"/>
</svg>
