<svg width="97" height="218" viewBox="0 0 97 218" fill="none" xmlns="http://www.w3.org/2000/svg">
<path d="M96 207.7H19.623V218.926H1.46875V177.568H19.623V188.794H96V207.7ZM96.8594 143.146C96.8594 150.701 94.5856 156.484 90.0381 160.495C85.4548 164.469 78.8483 166.457 70.2188 166.457H25.3164C17.224 166.457 11.083 164.487 6.89355 160.548C2.7041 156.574 0.609375 150.773 0.609375 143.146C0.609375 135.519 2.7041 129.736 6.89355 125.797C11.083 121.823 17.224 119.836 25.3164 119.836H70.2188C78.8483 119.836 85.4548 121.841 90.0381 125.851C94.5856 129.826 96.8594 135.591 96.8594 143.146ZM79.457 142.985C79.457 140.12 76.682 138.688 71.1318 138.688H24.9941C20.3392 138.688 18.0117 140.085 18.0117 142.878C18.0117 146.029 20.3929 147.604 25.1553 147.604H71.2393C74.1755 147.604 76.2881 147.246 77.5771 146.53C78.8304 145.814 79.457 144.632 79.457 142.985ZM96.8594 83.7482C96.8594 91.6258 94.6572 97.4266 90.2529 101.151C85.8128 104.875 79.2959 106.737 70.7021 106.737H1.46875V88.3674H69.9502C71.5257 88.3674 73.0475 88.2779 74.5156 88.0988C75.9479 87.9198 77.1296 87.508 78.0605 86.8635C78.9915 86.2189 79.457 85.1805 79.457 83.7482C79.457 82.2801 79.0094 81.2238 78.1143 80.5793C77.1833 79.9348 75.9837 79.5409 74.5156 79.3977C73.0475 79.2186 71.5257 79.1291 69.9502 79.1291H1.46875V60.76H70.7021C79.2959 60.76 85.8128 62.6219 90.2529 66.3459C94.6572 70.0699 96.8594 75.8706 96.8594 83.7482ZM96 46.909H1.46875L1.46875 17.9051C1.46875 13.0711 2.57878 9.41875 4.79883 6.94804C6.98307 4.47734 10.0625 2.83021 14.0371 2.00664C17.9759 1.14726 22.613 0.717575 27.9482 0.717575C33.1045 0.717575 37.2223 1.38001 40.3018 2.70488C43.3812 3.99394 45.5117 6.44674 46.6934 10.0633C47.3021 7.09127 48.7881 5.01445 51.1514 3.83281C53.4788 2.61536 56.5046 2.00664 60.2285 2.00664H96V20.6443H58.9932C56.236 20.6443 54.5352 21.2172 53.8906 22.3631C53.2103 23.4731 52.8701 25.2814 52.8701 27.7879H96V46.909ZM36.4883 27.6805V23.115C36.4883 20.5011 33.6416 19.1941 27.9482 19.1941C24.2601 19.1941 21.8431 19.4806 20.6973 20.0535C19.5514 20.6264 18.9785 21.7006 18.9785 23.2762V27.6805H36.4883Z" fill="white" fill-opacity="0.7"/>
</svg>
