<svg width="97" height="300" viewBox="0 0 97 300" fill="none" xmlns="http://www.w3.org/2000/svg">
<path d="M96 290.398L1.46875 300.55V282.073L61.1416 276.863L1.46875 271.546V253.929L61.1416 248.88L1.46875 243.831V225.14L96 235.452V258.118L50.5068 262.845L96 267.356V290.398ZM96 216.982L1.46875 207.851V175.786L96 166.816V184.702L80.7461 186.045V197.431L96 198.613V216.982ZM65.6533 196.088V187.495L17.582 191.63V192.49L65.6533 196.088ZM96 147.701H19.623V158.927H1.46875L1.46875 117.57H19.623L19.623 128.795H96V147.701ZM96.8594 83.6844C96.8594 90.5236 94.7288 96.0379 90.4678 100.227C86.2067 104.381 80.2448 106.458 72.582 106.458H28.9688C19.8021 106.458 12.7839 104.65 7.91406 101.033C3.04427 97.3807 0.609375 91.4546 0.609375 83.2547C0.609375 78.7788 1.43294 74.8042 3.08008 71.3309C4.72721 67.8217 7.19792 65.0646 10.4922 63.0594C13.7507 61.0542 17.8685 60.0516 22.8457 60.0516H39.1738V78.8504H25.209C22.3802 78.8504 20.4824 79.2085 19.5156 79.9246C18.513 80.6408 18.0117 81.7508 18.0117 83.2547C18.0117 85.0092 18.6563 86.1909 19.9453 86.7996C21.1986 87.4083 22.8815 87.7127 24.9941 87.7127H72.3135C74.9274 87.7127 76.7715 87.3367 77.8457 86.5848C78.9199 85.797 79.457 84.687 79.457 83.2547C79.457 81.6434 78.7946 80.5154 77.4697 79.8709C76.1449 79.1906 74.4261 78.8504 72.3135 78.8504H55.2871V59.8367H73.1729C81.4801 59.8367 87.5137 61.9314 91.2734 66.1209C94.9974 70.3103 96.8594 76.1648 96.8594 83.6844ZM96 46.8988H1.46875V28.1H35.2529V19.184H1.46875L1.46875 0.385162H96V19.184H53.1387V28.1H96V46.8988Z" fill="white" fill-opacity="0.7"/>
</svg>
